<mxfile host="app.diagrams.net" modified="2023-09-06T13:41:32.512Z" agent="Mozilla/5.0 (X11; Linux x86_64) AppleWebKit/537.36 (KHTML, like Gecko) Chrome/115.0.0.0 Safari/537.36" version="21.7.1" etag="kyYj3VO7hpYM6j0ztYdk" type="github">
  <diagram name="PÃ¡gina-1" id="j28CgCLm0zlX5Y3vUb_f">
    <mxGraphModel>
      <root>
        <mxCell id="0" />
        <mxCell id="1" parent="0" />
      </root>
    </mxGraphModel>
  </diagram>
</mxfile>
